HIERARCHY
ROOT Hips
{
  OFFSET -4.88426 94.5315 -268.518
  CHANNELS 6 Xposition Yposition Zposition Zrotation Xrotation Yrotation
  JOINT ToSpine
  {
    OFFSET -2.69724 7.43032 -0.144315
    CHANNELS 3 Zrotation Xrotation Yrotation
    JOINT Spine
    {
      OFFSET -0.0310711 10.7595 1.96963
      CHANNELS 3 Zrotation Xrotation Yrotation
      JOINT Spine1
      {
        OFFSET 13.1342 3.43533 0.764692
        CHANNELS 3 Zrotation Xrotation Yrotation
        JOINT Neck
        {
          OFFSET 29.8703 7.82586 -0.130764
          CHANNELS 3 Zrotation Xrotation Yrotation
          JOINT Head
          {
            OFFSET 9.52751 0.295786 -0.907742
            CHANNELS 3 Zrotation Xrotation Yrotation
            End Site
            {
              OFFSET 16.4037 0.713936 2.7358
            }
          }
        }
        JOINT LeftShoulder
        {
          OFFSET 27.5574 4.95586 2.47156
          CHANNELS 3 Zrotation Xrotation Yrotation
          JOINT LeftArm
          {
            OFFSET 1.20734 -0.998971 20.1238
            CHANNELS 3 Zrotation Xrotation Yrotation
            JOINT LeftForeArm
            {
              OFFSET 26.8049 -0.0536703 -0.155908
              CHANNELS 3 Zrotation Xrotation Yrotation
              JOINT LeftHand
              {
                OFFSET 26.6817 0 0.320147
                CHANNELS 3 Zrotation Xrotation Yrotation
                End Site
                {
                  OFFSET 18.6119 0 0.382219
                }
              }
            }
          }
        }
        JOINT RightShoulder
        {
          OFFSET 27.5927 4.71444 -2.65209
          CHANNELS 3 Zrotation Xrotation Yrotation
          JOINT RightArm
          {
            OFFSET 2.83739 -1.17114 -18.7564
            CHANNELS 3 Zrotation Xrotation Yrotation
            JOINT RightForeArm
            {
              OFFSET 28.839 -0.0548439 1.22491
              CHANNELS 3 Zrotation Xrotation Yrotation
              JOINT RightHand
              {
                OFFSET 26.5114 0 -0.101894
                CHANNELS 3 Zrotation Xrotation Yrotation
                End Site
                {
                  OFFSET 18.2168 0 0
                }
              }
            }
          }
        }
      }
    }
  }
  JOINT LeftUpLeg
  {
    OFFSET -4.76168 -1.9167 -10.2353
    CHANNELS 3 Zrotation Xrotation Yrotation
    JOINT LeftLeg
    {
      OFFSET 2.55951 -42.0585 -8.02213
      CHANNELS 3 Zrotation Xrotation Yrotation
      JOINT LeftFoot
      {
        OFFSET 3.16357 -42.5282 -3.95426
        CHANNELS 3 Zrotation Xrotation Yrotation
        JOINT LeftToeBase
        {
          OFFSET 0.346054 -6.02161 12.8035
          CHANNELS 3 Zrotation Xrotation Yrotation
          End Site
          {
            OFFSET 0.134235 -1.35082 5.13018
          }
        }
      }
    }
  }
  JOINT RightUpLeg
  {
    OFFSET -4.94151 -1.41743 10.6446
    CHANNELS 3 Zrotation Xrotation Yrotation
    JOINT RightLeg
    {
      OFFSET -2.56294 -42.0364 -7.94377
      CHANNELS 3 Zrotation Xrotation Yrotation
      JOINT RightFoot
      {
        OFFSET -3.0952 -42.555 -4.02241
        CHANNELS 3 Zrotation Xrotation Yrotation
        JOINT RightToeBase
        {
          OFFSET -0.0828122 -6.13587 12.8035
          CHANNELS 3 Zrotation Xrotation Yrotation
          End Site
          {
            OFFSET -0.131328 -1.35082 5.13018
          }
        }
      }
    }
  }
}
MOTION
Frames:	18
Frame Time:	0.0333333
19.4807 89.2568 1.71139 -74.5448 -26.5584 163.726 -70.1915 0 88.8779 122.856 73.1737 -35.758 -4.28829 28.8342 -6.27248 -143.386 15.8845 -160.795 -152.003 51.9026 -171.2 0.86012 -10.9152 -36.1673 -122.292 19.3915 -44.4829 9.09938 0.464026 -86.2585 0.420957 0.000575442 0.358661 -2.25941 8.81658 39.767 -54.9706 -15.7147 125.234 31.5193 -3.74016 83.7352 0.58676 0.000329772 0.0646649 -33.81 20.6269 88.8365 -4.10765 46.7469 -14.6021 -14.5504 14.8429 4.82986 -2.97959 4.86562 3.05512 -32.0424 -13.7816 81.2505 1.3368 61.6435 -19.7878 -15.1015 -29.9422 0.427561 1.96565 -1.57707 -9.48694 
21.621 87.5102 8.43712 -73.3437 -19.6386 162.601 -70.1915 0 88.8779 130.669 70.4034 -42.4715 -5.97805 28.1042 -6.07607 -150.038 12.0582 -158.101 -154.028 49.2523 -171.715 1.07502 -10.0606 -36.1298 -126.847 12.8328 -44.4525 7.4544 0.0474033 -88.6545 0.420957 0.000575442 0.358661 -2.12551 9.46714 36.4515 -61.8713 -15.09 121.637 29.2105 -4.07868 82.5698 0.58676 0.000329772 0.0646649 -34.8816 22.6955 90.574 -4.18884 45.8305 -16.5275 -15.341 14.2645 4.91514 -3.20234 6.90538 0.232497 -25.7591 -14.7945 87.7462 5.37829 69.822 -11.0596 -16.4602 -27.7305 0.390299 3.52298 -6.82648 -30.5695 
22.5859 87.4366 15.3915 -71.9548 -16.1736 164.602 -70.1915 0 88.8779 131.501 69.7289 -40.2581 -6.0569 26.923 -4.81131 -151.669 10.2817 -158.282 -153.708 47.739 -172.504 1.09145 -9.97357 -33.3297 -128.849 7.5805 -46.0763 5.63734 -0.122806 -91.7923 0.420957 0.000575442 0.358661 -1.97225 9.28107 35.2472 -68.0257 -13.2178 115.979 31.311 -4.2944 82.7843 0.58676 0.000329772 0.0646649 -33.7889 25.0168 90.9565 -3.98491 44.2176 -16.6586 -17.9162 14.5872 5.66472 -3.18953 8.55731 -2.43187 -22.9524 -19.3705 87.0355 8.07062 71.7964 -9.1806 -16.3837 -25.8499 0.534907 3.41658 -9.29094 -27.1775 
23.1118 88.3978 22.1381 -71.2084 -13.665 164.651 -70.1915 0 88.8779 127.47 70.71 -35.8094 -5.0415 26.152 -3.3467 -150.576 9.63374 -158.208 -153.53 46.9012 -171.784 1.22935 -9.25583 -30.6236 -128.744 3.07969 -49.5503 4.88902 -0.468366 -93.796 0.420957 0.000575442 0.358661 -1.64844 9.05956 32.1288 -69.6607 -13.7372 112.58 30.509 -2.36992 85.6344 0.58676 0.000329772 0.0646649 -35.9102 24.6486 93.1464 -3.46273 39.8696 -16.0047 -17.0182 16.6557 5.88748 -4.59436 10.5951 -0.637854 -21.7381 -23.7025 88.6266 8.36779 70.2219 -5.23033 -13.5556 -23.6441 0.938737 3.41904 -8.91081 -27.5267 
22.8417 89.6353 28.8654 -71.6598 -10.2913 163.283 -70.1915 0 88.8779 127.726 70.8684 -34.8411 -4.46906 26.8107 -4.98545 -146.933 9.94939 -156.92 -153.206 46.4392 -169.594 1.41603 -8.04953 -27.8964 -127.345 0.9338 -53.1765 4.9141 -0.343161 -91.9271 0.420957 0.000575442 0.358661 -1.53623 9.22322 30.4945 -66.662 -17.1588 109.53 29.9647 0.616265 91.1985 0.58676 0.000329772 0.0646649 -41.4236 23.023 96.504 -2.86215 34.907 -13.8334 -14.7516 17.5836 5.4444 -5.59201 12.5094 -0.158145 -21.9483 -26.421 91.0796 6.54114 66.6093 -4.99275 -13.6269 -17.8018 1.15305 3.30632 -11.4653 -30.6271 
22.8738 91.3659 35.7094 -72.4005 -7.07661 162.82 -70.1915 0 88.8779 128.022 71.0587 -33.8739 -4.00663 26.9798 -5.18024 -142.97 10.7931 -154.54 -152.454 46.2065 -167.235 1.60474 -6.56313 -25.7962 -126.647 2.34028 -53.8584 9.15621 0.336686 -88.8385 0.420957 0.000575442 0.358661 -1.43744 9.37731 29.0746 -60.8876 -19.4448 108.201 30.7073 4.75961 97.4985 0.58676 0.000329772 0.0646649 -47.3911 20.5044 98.7884 -2.05198 28.8668 -11.4179 -15.648 19.2063 6.03475 -6.39906 15.3788 -1.4456 -22.9693 -29.4388 87.6129 2.63524 61.74 -11.18 -12.7451 -12.1434 1.41368 3.34975 -11.9384 -32.3732 
22.686 92.1832 42.406 -73.0605 -4.07403 163.054 -70.1915 0 88.8779 125.844 71.1257 -30.67 -3.00171 26.3207 -4.83109 -140.026 10.8398 -152.213 -150.821 45.3225 -165.033 1.76316 -5.2297 -24.7515 -127.564 4.87892 -51.3025 11.2892 0.283968 -87.3194 0.420957 0.000575442 0.358661 -1.52648 9.34304 30.1394 -55.5697 -18.7145 108.311 33.4875 9.03605 103.104 0.58676 0.000329772 0.0646649 -51.5234 17.6387 99.5022 -1.45842 25.9385 -9.28795 -15.4472 21.5176 6.46839 -6.58073 14.5786 0.119109 -23.4619 -31.5701 80.7235 1.67698 61.6277 -15.4517 -12.1727 -12.4617 1.38207 2.93859 -12.1803 -26.4522 
22.8846 91.2702 48.7536 -72.6262 -0.50324 163.403 -70.1915 0 88.8779 123.099 71.5831 -27.4886 -2.1691 26.0027 -4.41355 -139.653 9.38875 -151.77 -150.314 43.7909 -164.359 1.91841 -4.17612 -24.8184 -129.647 5.86052 -49.1895 12.8531 0.708073 -86.3299 0.420957 0.000575442 0.358661 -1.69911 9.04093 32.7524 -52.2312 -17.4784 108.778 34.1604 13.0098 108.065 0.58676 0.000329772 0.0646649 -51.8629 16.1642 101.14 -1.82052 28.8606 -7.94152 -14.1063 21.518 6.06711 -4.58809 9.37457 1.28773 -20.1691 -30.0164 78.1347 6.08724 69.6472 -11.159 -10.8951 -14.2279 1.3138 2.78402 -14.7489 -32.8184 
23.5486 89.2719 54.6918 -73.317 2.71023 163.946 -70.1915 0 88.8779 127.735 70.9815 -32.5377 -3.28389 26.0251 -2.88335 -140.223 7.47925 -153.052 -150.065 41.953 -166.556 1.82696 -5.46579 -27.0537 -131.992 4.92121 -49.0502 14.4004 1.21414 -84.6272 0.420957 0.000575442 0.358661 -1.68354 8.45578 34.0143 -50.4287 -18.0789 110.144 32.1625 15.0572 112.144 0.58676 0.000329772 0.0646649 -50.6545 15.2731 103.398 -1.94745 36.4408 -4.24396 -7.88439 15.0074 3.15031 2.82127 -6.89214 2.45927 -18.7902 -27.0101 76.3864 18.8891 78.7665 -13.4324 -10.9695 -9.65519 1.36339 1.51526 -23.7399 -32.0858 
24.6766 87.4342 60.3235 -74.6441 3.8746 165.58 -70.1915 0 88.8779 132.581 69.9752 -36.8722 -3.77771 25.8136 -1.56582 -141.2 6.12305 -154.045 -149.443 40.5655 -169.446 1.54839 -7.72027 -31.2425 -134.449 4.05471 -51.6188 17.0684 2.68545 -80.6822 0.420957 0.000575442 0.358661 -1.59873 8.11059 33.8809 -49.5271 -20.3686 112.464 30.1701 15.1188 113.853 0.58676 0.000329772 0.0646649 -48.8345 15.6464 104.45 -2.77207 44.857 -3.79938 -4.30107 3.73693 0.764166 5.44897 -12.3124 4.86385 -20.9816 -23.9618 72.7262 55.4966 84.4957 -40.6099 -7.14546 -5.15551 1.16871 2.06776 -21.993 -28.4101 
25.6232 85.7277 64.2641 -74.2668 1.70318 164.951 -70.1915 0 88.8779 128.149 70.2771 -34.3191 -3.10814 25.5016 -2.50201 -143.381 5.10485 -153.94 -150.951 40.1311 -169.737 1.25937 -9.20465 -32.8269 -135.617 5.29784 -55.4478 19.3013 5.31956 -74.5714 0.420957 0.000575442 0.358661 -1.66781 8.11947 34.7281 -48.5954 -23.0839 115.464 31.162 13.9149 111.383 0.58676 0.000329772 0.0646649 -46.6781 15.9277 108.006 -4.70379 49.8447 -14.0533 -7.74986 -4.56794 0.30173 7.07611 -15.5446 8.41195 -23.0595 -21.961 71.0956 85.3411 85.3334 -74.647 -6.06968 -3.59387 1.01415 1.8727 -19.0553 -4.6275 
26.6174 84.6704 67.1814 -73.8859 -3.29183 165.156 -70.1915 0 88.8779 121.908 70.3173 -30.3756 -2.76403 24.7555 -3.58147 -145.207 4.78862 -155.244 -152.514 40.6248 -169.192 0.795069 -11.255 -34.129 -134.786 7.24618 -61.0782 19.1239 7.97904 -67.6185 0.420957 0.000575442 0.358661 -1.95047 8.08419 38.3729 -48.6376 -25.951 116.127 32.0291 11.695 107.664 0.58676 0.000329772 0.0646649 -40.868 18.6298 111.895 -7.66877 57.9175 -25.3161 -9.79198 -5.50055 0.292477 8.54968 -18.0895 14.284 -27.0829 -19.5123 69.7633 35.3748 83.7801 -31.5823 -7.65359 -12.398 1.25621 2.56301 -20.9533 7.76041 
27.8676 83.5992 69.7537 -74.4275 -7.88454 167.734 -70.1915 0 88.8779 123.962 68.9777 -33.0074 -3.98602 23.9199 -3.16555 -145.962 5.04212 -157.353 -152.735 41.5075 -168.097 0.5691 -12.1976 -34.449 -133.361 9.64909 -66.7562 18.4877 10.0455 -61.918 0.420957 0.000575442 0.358661 -2.38279 8.70867 41.5175 -49.7238 -28.1529 115.001 29.8787 9.30586 105.436 0.58676 0.000329772 0.0646649 -33.5101 22.9027 110.337 -10.4203 65.8591 -24.4907 -10.1413 -1.63924 0.948689 12.1652 -22.9641 18.5092 -29.4496 -15.3098 70.0379 21.7694 80.1272 -16.2276 -9.68507 -25.8288 1.26911 2.49505 -14.126 -23.8351 
29.137 81.8775 73.1086 -75.4785 -11.2047 168.572 -70.1915 0 88.8779 123.93 68.3072 -34.454 -3.48215 23.1819 -2.86028 -146.708 5.22645 -158.54 -152.396 42.0232 -167.983 0.197558 -13.599 -35.6598 -132.382 10.9728 -69.8436 20.5111 12.0678 -60.262 0.420957 0.000575442 0.358661 -2.52063 8.91902 42.3869 -50.1309 -28.1023 115.566 29.6171 7.76572 103.095 0.58676 0.000329772 0.0646649 -30.3292 22.9235 105.741 -7.95274 63.3112 -10.5691 -7.82582 -4.40458 0.245008 7.6018 -16.8109 18.4816 -27.9037 -14.656 72.1333 16.8472 80.9351 -22.7273 -11.2603 -31.9139 0.91943 3.04038 -12.6424 -28.5443 
29.6851 81.3911 76.5014 -76.4215 -12.9388 169.618 -70.1915 0 88.8779 122.642 68.3702 -33.146 -2.66778 22.8544 -2.76497 -145.161 5.78928 -158.837 -152.629 42.3064 -167.701 -0.123248 -14.6987 -36.7343 -130.843 11.9526 -70.6973 20.0984 12.828 -58.2273 0.420957 0.000575442 0.358661 -2.57475 9.23517 41.9698 -48.5103 -27.2846 116.699 28.6871 6.37246 101.198 0.58676 0.000329772 0.0646649 -32.8471 22.8078 102.076 -4.69382 53.5695 -8.06383 -7.49762 -0.860563 0.757683 6.51754 -15.174 16.9716 -28.2987 -14.5872 73.6265 13.7602 80.7203 -23.865 -12.8349 -35.3006 0.555306 3.88378 -10.2233 -35.5667 
29.8164 80.9492 80.225 -77.0405 -14.2329 172.106 -70.1915 0 88.8779 120.61 68.8229 -29.8963 -2.35611 22.5246 -1.75211 -143.067 5.84758 -160.521 -152.091 41.9697 -168.735 0.105224 -13.9056 -36.1098 -127.993 14.15 -70.8196 19.5495 12.4316 -58.249 0.420957 0.000575442 0.358661 -2.47927 8.83859 42.1871 -46.524 -26.3822 116.68 27.7119 5.8185 100.657 0.58676 0.000329772 0.0646649 -34.6431 23.7918 97.2602 -3.44338 49.3713 -6.20677 -7.88311 3.02709 1.37236 3.67781 -10.3802 12.4232 -29.3532 -15.5486 73.1649 12.7309 81.125 -25.5705 -12.4206 -36.015 0.597146 3.93726 -9.73473 -35.2194 
30.2672 80.4026 84.0825 -77.3521 -15.5342 173.718 -70.1915 0 88.8779 118.422 69.3854 -27.2655 -2.11292 22.4318 -0.816932 -142.622 5.35242 -162.121 -151.825 41.4233 -169.971 0.11739 -13.8246 -36.3532 -126.489 15.7394 -70.2658 20.9924 12.6925 -59.6576 0.420957 0.000575442 0.358661 -2.42556 8.58055 42.4354 -45.5524 -26.0388 115.494 27.3978 6.14192 101.393 0.58676 0.000329772 0.0646649 -35.4622 23.0168 92.7907 -3.86182 51.6869 -5.61839 -7.81325 2.90513 1.35044 3.1746 -8.27692 6.50017 -29.1208 -18.3715 73.4698 18.5149 82.8129 -29.1345 -13.1481 -34.4358 0.508558 3.67474 -11.9248 -38.6788 
31.0298 80.3692 88.2379 -78.0999 -16.0979 174.96 -70.1915 0 88.8779 120.204 69.8394 -27.6449 -1.37617 23.1173 -0.727931 -143.102 5.58852 -162.498 -152.437 41.8326 -169.979 -0.111726 -14.6248 -36.9177 -126.53 16.9182 -71.0908 21.37 13.0458 -59.472 0.420957 0.000575442 0.358661 -2.3479 8.54038 41.6699 -46.0998 -25.9484 114.073 27.2943 6.65326 102.38 0.58676 0.000329772 0.0646649 -36.9897 21.762 90.7777 -4.57782 53.8212 -8.02698 -7.17352 -0.991417 0.702929 6.34995 -13.923 2.73771 -29.707 -21.1237 74.0343 20.1981 83.2056 -30.5011 -11.6727 -32.8953 0.838565 3.49618 -12.2143 -36.0358 
